<?xml version="1.0" encoding="UTF-8"?>
<svg version="1.1" xmlns="http://www.w3.org/2000/svg" width="313" height="314">
<path d="M0 0 C103.29 0 206.58 0 313 0 C313 103.62 313 207.24 313 314 C209.71 314 106.42 314 0 314 C0 210.38 0 106.76 0 0 Z " fill="#EEF7E7" transform="translate(0,0)"/>
<path d="M0 0 C103.29 0 206.58 0 313 0 C313 103.62 313 207.24 313 314 C209.71 314 106.42 314 0 314 C0 210.38 0 106.76 0 0 Z M145.765625 3.08984375 C131.68778063 3.75481105 118.11942376 6.88848157 104.98046875 11.89453125 C101.3571302 13.23844319 97.76999884 14.17060026 94 15 C94 15.66 94 16.32 94 17 C92.80375 17.33 91.6075 17.66 90.375 18 C75.4995464 23.03583998 60.82076821 33.73575768 50 45 C49.09121094 45.8971875 48.18242188 46.794375 47.24609375 47.71875 C46.31925781 48.6365625 45.39242187 49.554375 44.4375 50.5 C43.50808594 51.4178125 42.57867187 52.335625 41.62109375 53.28125 C24.73570106 70.79575568 9.80566975 96.30048978 5.47119141 120.39746094 C5.09952527 122.45029049 4.69365777 124.49692768 4.27539062 126.54077148 C2.35481733 136.21606519 1.55129685 145.50007479 1.66381836 155.35717773 C1.68753719 157.56596338 1.68432514 159.77353943 1.67773438 161.98242188 C1.70109669 174.52772213 2.32998282 187.26353134 6.3125 199.25 C6.53123779 199.91 6.74997559 200.57 6.9753418 201.25 C16.84261911 230.4591221 33.72997466 258.53985241 58 278 C59.34191406 279.11568359 59.34191406 279.11568359 60.7109375 280.25390625 C74.11457614 291.04096556 88.63750907 299.37594588 105.11425781 304.41650391 C106.82402542 304.94554903 108.51867491 305.5228528 110.2109375 306.10546875 C141.82698137 316.71187935 176.83750142 315.68051929 208 304 C208.66676758 303.75878418 209.33353516 303.51756836 210.02050781 303.26904297 C228.71594605 296.47876273 245.2985558 286.59813351 259.8359375 273.0078125 C261.69125078 271.28645685 263.58720874 269.70342909 265.5625 268.125 C282.49746836 253.64322799 294.29129081 231.32025039 302.23339844 210.91552734 C302.96593238 209.08512564 303.76476004 207.28167383 304.56640625 205.48046875 C306.08414224 201.79572007 307.17532691 198.10947145 308.125 194.25 C308.29386719 193.610625 308.46273438 192.97125 308.63671875 192.3125 C310.98179756 182.93218474 311.19552703 173.31270894 311.1875 163.6875 C311.18669434 162.66148682 311.18588867 161.63547363 311.18505859 160.57836914 C311.12846919 153.3343705 310.76588398 146.15281099 310.125 138.9375 C310.04660889 138.0405542 309.96821777 137.1436084 309.88745117 136.21948242 C309.39637449 131.26869498 308.47835757 126.77079533 307 122 C306.7085532 120.48298204 306.43570531 118.96218975 306.1875 117.4375 C299.27711848 82.46358435 273.03064686 49.14367501 243.984375 29.5078125 C213.80155884 10.02054812 181.46440706 2.09821091 145.765625 3.08984375 Z " fill="#EFF7E7" transform="translate(0,0)"/>
<path d="M0 0 C16.5 0 33 0 50 0 C50 5.61 50 11.22 50 17 C46.7 17 43.4 17 40 17 C40 23.93 40 30.86 40 38 C49.9 38 59.8 38 70 38 C70 31.07 70 24.14 70 17 C66.7 17 63.4 17 60 17 C60 11.72 60 6.44 60 1 C76.5 1 93 1 110 1 C110 6.28 110 11.56 110 17 C105.71 17 101.42 17 97 17 C97 36.8 97 56.6 97 77 C101.29 76.67 105.58 76.34 110 76 C110.02684312 78.81256281 110.04676188 81.62487241 110.0625 84.4375 C110.07087891 85.23994141 110.07925781 86.04238281 110.08789062 86.86914062 C110.0965143 88.91295221 110.0522815 90.95683902 110 93 C109 94 109 94 107.01951599 94.12025452 C106.15125687 94.11803391 105.28299774 94.11581329 104.38842773 94.11352539 C103.40748642 94.11344986 102.4265451 94.11337433 101.4158783 94.11329651 C100.3492244 94.10813522 99.2825705 94.10297394 98.18359375 94.09765625 C96.55430687 94.09553383 96.55430687 94.09553383 94.8921051 94.09336853 C91.40720925 94.08775048 87.92237658 94.07519492 84.4375 94.0625 C82.08138113 94.05748733 79.72526126 94.05292402 77.36914062 94.04882812 C71.57940257 94.03777518 65.78971201 94.02049846 60 94 C60 88.39 60 82.78 60 77 C63.3 77 66.6 77 70 77 C70 69.74 70 62.48 70 55 C60.1 55 50.2 55 40 55 C40 62.26 40 69.52 40 77 C43.3 77 46.6 77 50 77 C50 82.61 50 88.22 50 94 C46.37 94 42.74 94 39 94 C41.31 96.64 43.62 99.28 46 102 C44.25323081 105.49353838 43.08594785 107.13945763 40.375 109.75 C39.74335938 110.36359375 39.11171875 110.9771875 38.4609375 111.609375 C37.73777344 112.29773438 37.73777344 112.29773438 37 113 C38.01312256 113.0093457 39.02624512 113.01869141 40.07006836 113.02832031 C43.86688512 113.06851122 47.66291611 113.13434669 51.45922852 113.20751953 C53.09519272 113.23556187 54.73128819 113.25685881 56.36743164 113.27099609 C66.53611433 113.36408748 74.80055534 113.4922682 83.3046875 119.67578125 C84.08199219 120.48595703 84.08199219 120.48595703 84.875 121.3125 C85.40867187 121.84488281 85.94234375 122.37726563 86.4921875 122.92578125 C90.84044026 128.90744501 91.45835659 134.33945539 91.43359375 141.51953125 C91.4388356 142.41814377 91.44407745 143.31675629 91.44947815 144.24259949 C91.45587462 146.13608777 91.45459227 148.02961591 91.44604492 149.9230957 C91.43755511 152.79386587 91.46629656 155.66263005 91.49804688 158.53320312 C91.58003515 178.90401635 91.58003515 178.90401635 84.74609375 186.5078125 C83.98425781 187.04148437 83.22242188 187.57515625 82.4375 188.125 C81.67308594 188.68445313 80.90867187 189.24390625 80.12109375 189.8203125 C78 191 78 191 75 191 C75 191.66 75 192.32 75 193 C71.30459598 194.23180134 67.89696622 194.12412112 64.05078125 194.09765625 C63.27816452 194.0962413 62.50554779 194.09482635 61.70951843 194.09336853 C59.24380611 194.08777466 56.77818485 194.07522333 54.3125 194.0625 C52.63997527 194.05748421 50.96744912 194.05292144 49.29492188 194.04882812 C45.19657954 194.03780724 41.09830521 194.02054684 37 194 C37 189.05 37 184.1 37 179 C40.62935547 178.90912109 40.62935547 178.90912109 44.33203125 178.81640625 C46.67524282 178.75459882 49.01840693 178.69121861 51.36157227 178.62768555 C52.99011004 178.58437251 54.61869216 178.54269482 56.24731445 178.50268555 C58.58818935 178.44489497 60.92884176 178.38122602 63.26953125 178.31640625 C63.99775589 178.29969376 64.72598053 178.28298126 65.47627258 178.26576233 C68.56166939 178.17532762 71.05171978 177.98276007 74 177 C74.33 176.01 74.66 175.02 75 174 C75.66 174 76.32 174 77 174 C76.95591481 168.21533882 76.88615355 162.43177621 76.79248047 156.64770508 C76.76423851 154.67969502 76.74304006 152.71157085 76.72900391 150.7434082 C76.70761879 147.9155827 76.6609926 145.08913385 76.609375 142.26171875 C76.60814636 141.38037766 76.60691772 140.49903656 76.60565186 139.59098816 C76.65404345 134.77197306 76.65404345 134.77197306 73.96191406 131.04614258 C73.31448242 130.70091553 72.66705078 130.35568848 72 130 C72 129.34 72 128.68 72 128 C60.12 128 48.24 128 36 128 C36 128.66 36 129.32 36 130 C36.53625 130.20625 37.0725 130.4125 37.625 130.625 C40.87338889 132.5056462 43.91978735 134.83807678 46 138 C45.77600207 141.50696765 44.08933627 143.36951879 41.6875 145.8125 C41.09324219 146.43769531 40.49898437 147.06289062 39.88671875 147.70703125 C38 149 38 149 36.1574707 148.84008789 C33.27675634 147.71837938 31.74525332 146.06642694 29.59375 143.8515625 C28.76746094 143.01109375 27.94117188 142.170625 27.08984375 141.3046875 C26.23519531 140.42039063 25.38054687 139.53609375 24.5 138.625 C22.80431813 136.8858391 21.1064814 135.14877597 19.40625 133.4140625 C18.65666016 132.6401416 17.90707031 131.8662207 17.13476562 131.06884766 C15.08097116 128.97060779 15.08097116 128.97060779 12.78295898 127.44140625 C11 126 11 126 10.06640625 122.5234375 C10.42126854 115.63122332 17.20501802 111.02747749 21.9375 106.625 C23.50056211 105.1342863 25.05804717 103.63794707 26.61439514 102.14022827 C28.02297089 100.79063513 29.44465695 99.4547651 30.86694336 98.11962891 C33.04021656 96.18558489 33.04021656 96.18558489 34 94 C22.78 94 11.56 94 0 94 C0 88.39 0 82.78 0 77 C4.29 77 8.58 77 13 77 C13 57.2 13 37.4 13 17 C8.71 17 4.42 17 0 17 C0 11.39 0 5.78 0 0 Z " fill="#0F713C" transform="translate(145,77)"/>
<path d="M0 0 C4.95 0 9.9 0 15 0 C15 10.56 15 21.12 15 32 C9.39 32 3.78 32 -2 32 C-2.495 28.04 -2.495 28.04 -3 24 C-6.90399613 19.75153362 -11.9489704 17.33300323 -17.6484375 16.7109375 C-23.45748886 16.5358702 -28.03192289 16.86795139 -33 20 C-34.33773831 22.99023858 -34.11149724 24.52056189 -33.375 27.6875 C-31.60532936 30.66376426 -30.2166611 30.84954896 -27 32 C-26.18402344 32.31839844 -25.36804688 32.63679688 -24.52734375 32.96484375 C-19.79209021 34.74324214 -15.20346862 36.21384934 -10.25 37.25 C0.12150728 39.73807997 11.54987478 45.29621657 18 54 C18.42796875 54.556875 18.8559375 55.11375 19.296875 55.6875 C23.30991713 62.06438886 23.0034122 69.76609809 22 77 C19.33505171 84.0998245 13.77242843 88.87499446 7 92 C-6.44078823 96.80991418 -22.2806738 98.96282614 -35.71875 93.15625 C-38.89798841 91.54485519 -41.97232581 89.88388616 -45 88 C-45 90.31 -45 92.62 -45 95 C-50.28 95 -55.56 95 -61 95 C-61 84.77 -61 74.54 -61 64 C-44.25301205 63.03614458 -44.25301205 63.03614458 -40.8671875 65.640625 C-39.7057233 67.71741529 -38.85158836 69.78161231 -38 72 C-32.76080104 77.23919896 -26.72692133 79.15501746 -19.4375 79.375 C-14.62488242 79.24782374 -9.58454054 78.58454054 -6 75 C-5.49904977 72.12693772 -5.49904977 72.12693772 -6 69 C-8.41880929 66.73122465 -8.41880929 66.73122465 -11 65 C-11 64.34 -11 63.68 -11 63 C-12.92005859 62.62101562 -12.92005859 62.62101562 -14.87890625 62.234375 C-20.11681569 61.06652506 -24.97520732 59.27114515 -29.9375 57.25 C-30.81486816 56.89292969 -31.69223633 56.53585938 -32.59619141 56.16796875 C-42.41917177 52.09195236 -50.37459973 48.38833694 -56 39 C-56.37125 38.44054687 -56.7425 37.88109375 -57.125 37.3046875 C-59.62696453 30.71469163 -59.42188173 20.80610167 -56.97265625 14.25 C-55.48255863 12.13662054 -54.00201596 10.63311447 -52 9 C-51.34644531 8.43023437 -50.69289063 7.86046875 -50.01953125 7.2734375 C-40.01418074 -0.41737838 -25.14041178 -0.26492232 -13 1 C-8.35231448 2.13747342 -4.25986408 3.87006796 0 6 C0 4.02 0 2.04 0 0 Z " fill="#5A902A" transform="translate(119,76)"/>
<path d="M0 0 C0.55913086 0.48758789 1.11826172 0.97517578 1.69433594 1.47753906 C13.52294303 11.88264616 23.51825719 22.98924735 31.93505859 36.32373047 C32.81612561 37.71057277 33.7266009 39.07868305 34.64453125 40.44140625 C46.35801412 58.47952451 51.48304643 78.9511405 54 100 C54.11472656 100.91910156 54.22945313 101.83820313 54.34765625 102.78515625 C55.08801517 109.86549019 55.10224591 116.95076348 55.125 124.0625 C55.12967285 125.06788818 55.1343457 126.07327637 55.13916016 127.10913086 C55.0783355 155.74584488 45.04259272 183.93528971 28 207 C27.60071289 207.5475293 27.20142578 208.09505859 26.79003906 208.65917969 C19.20433009 219.01624838 11.06682465 228.95930329 1 237 C0.4548877 237.43570312 -0.09022461 237.87140625 -0.65185547 238.3203125 C-33.44943344 264.30134329 -73.1377959 276.97367769 -115 274 C-129.53780723 272.20150838 -143.41401011 268.38284198 -157 263 C-157.86625 262.69707031 -158.7325 262.39414062 -159.625 262.08203125 C-183.7765571 253.39236628 -207.08928683 234.74383938 -222 214 C-222.86625 212.82244141 -222.86625 212.82244141 -223.75 211.62109375 C-235.46498813 195.32993838 -244.24961492 178.2125269 -250 159 C-250.32798584 157.92709717 -250.65597168 156.85419434 -250.99389648 155.7487793 C-254.04587873 144.37697938 -254.35061613 132.48404124 -254.31567383 120.77319336 C-254.31250559 118.56639429 -254.33613877 116.36093295 -254.36132812 114.15429688 C-254.53304207 75.16848256 -237.14381676 37.54466757 -210.0625 9.9375 C-200.06482629 0.11154206 -189.14097916 -8.6682923 -177.1875 -16 C-176.29115845 -16.56050049 -176.29115845 -16.56050049 -175.37670898 -17.13232422 C-171.02916138 -19.72227608 -166.95093713 -20.9542575 -162 -22 C-162 -22.66 -162 -23.32 -162 -24 C-158.34745103 -25.13705437 -154.69166092 -26.26309035 -151.03271484 -27.37939453 C-149.65239524 -27.80081808 -148.27252667 -28.22372123 -146.89306641 -28.64794922 C-97.00754265 -43.94255915 -39.89149065 -34.99712075 0 0 Z M-130.875 -27.625 C-133.85519762 -26.82977573 -136.81805667 -26.0396511 -139.83203125 -25.3828125 C-163.83758202 -20.06284092 -186.29776922 -5.85926741 -204 11 C-204 11.66 -204 12.32 -204 13 C-204.57363281 13.24105469 -205.14726562 13.48210938 -205.73828125 13.73046875 C-225.61664272 24.88844367 -238.68044292 58.91147367 -244.64208984 79.68554688 C-244.9045752 80.63494141 -245.16706055 81.58433594 -245.4375 82.5625 C-245.6845166 83.45388672 -245.9315332 84.34527344 -246.18603516 85.26367188 C-251.93772238 107.22093258 -251.48376783 135.27728321 -245 157 C-244.76394043 157.81001465 -244.52788086 158.6200293 -244.28466797 159.45458984 C-236.6721808 184.84427142 -222.96533149 207.53375618 -204 226 C-203.50371094 226.51820313 -203.00742188 227.03640625 -202.49609375 227.5703125 C-194.9176359 235.41252178 -186.39410019 241.55279531 -177.25 247.4375 C-176.43370117 247.97012451 -175.61740234 248.50274902 -174.77636719 249.05151367 C-170.52665281 251.73607025 -167.14696535 253.67623928 -162 254 C-162 254.66 -162 255.32 -162 256 C-129.78370921 267.16889647 -94.59896982 274.0404524 -61 264 C-59.93869873 263.68651611 -59.93869873 263.68651611 -58.85595703 263.36669922 C-53.80104363 261.82211021 -48.89783993 259.98220238 -44 258 C-42.80890625 257.52651123 -42.80890625 257.52651123 -41.59375 257.04345703 C-29.48634239 252.16029361 -18.96818631 246.15737412 -8.6015625 238.21972656 C-7.26907682 237.20492497 -5.90380185 236.23335509 -4.53125 235.2734375 C-4.0259375 234.85320312 -3.520625 234.43296875 -3 234 C-3 233.34 -3 232.68 -3 232 C-2.40541992 231.72921631 -1.81083984 231.45843262 -1.19824219 231.17944336 C2.36243801 229.26899844 4.92425185 226.41467818 7.75 223.5625 C8.68924316 222.61479736 8.68924316 222.61479736 9.64746094 221.64794922 C14.7016721 216.46142201 19.05542333 211.08387329 23 205 C23.40734375 204.37270996 23.8146875 203.74541992 24.234375 203.09912109 C28.88447268 195.90001767 33.27362201 188.72468644 37 181 C37.4434375 180.11054688 37.886875 179.22109375 38.34375 178.3046875 C41.78160385 171.08054866 44.01830287 163.73967548 46 156 C46.29003906 154.86820313 46.58007812 153.73640625 46.87890625 152.5703125 C49.6931507 141.01423625 50.23947157 129.81249316 50.25 117.9375 C50.25067474 117.25024841 50.25134949 116.56299683 50.25204468 115.85491943 C50.23554876 105.2583757 49.63712558 95.31072869 47 85 C46.85498047 84.3615918 46.70996094 83.72318359 46.56054688 83.06542969 C42.3764321 64.70785251 33.45838274 45.92478425 22 31 C21.34515625 30.13890625 20.6903125 29.2778125 20.015625 28.390625 C18.05642015 25.88466531 16.04575651 23.4356158 14 21 C13.06220703 19.85917969 13.06220703 19.85917969 12.10546875 18.6953125 C6.99045958 12.67397787 1.19803988 7.86988848 -5 3 C-5.83789062 2.30777344 -6.67578125 1.61554687 -7.5390625 0.90234375 C-13.39616902 -3.92279638 -19.51522606 -8.06530613 -26 -12 C-27.28003906 -12.79470703 -27.28003906 -12.79470703 -28.5859375 -13.60546875 C-30.6602419 -14.80373197 -32.56360393 -15.70460097 -34.8125 -16.5 C-35.50859375 -16.75007813 -36.2046875 -17.00015625 -36.921875 -17.2578125 C-37.60765625 -17.50273437 -38.2934375 -17.74765625 -39 -18 C-40.7634375 -18.680625 -40.7634375 -18.680625 -42.5625 -19.375 C-48.97037166 -21.77795187 -55.48547517 -23.90678576 -62 -26 C-63.04027344 -26.33902344 -64.08054688 -26.67804687 -65.15234375 -27.02734375 C-75.57580175 -29.66230927 -85.83182993 -30.29954123 -96.53051758 -30.20581055 C-98.69559463 -30.18743128 -100.86024314 -30.18530269 -103.02539062 -30.18554688 C-112.42243499 -30.16245502 -121.74425573 -30.08633106 -130.875 -27.625 Z " fill="#649737" transform="translate(256,39)"/>
<path d="M0 0 C0.33 0 0.66 0 1 0 C1 5.28 1 10.56 1 16 C17.17 16 33.34 16 50 16 C50 16.33 50 16.66 50 17 C46.37 17 42.74 17 39 17 C41.31 19.64 43.62 22.28 46 25 C44.25323081 28.49353838 43.08594785 30.13945763 40.375 32.75 C39.74335938 33.36359375 39.11171875 33.9771875 38.4609375 34.609375 C37.73777344 35.29773438 37.73777344 35.29773438 37 36 C38.01312256 36.0093457 39.02624512 36.01869141 40.07006836 36.02832031 C43.86688512 36.06851122 47.66291611 36.13434669 51.45922852 36.20751953 C53.09519272 36.23556187 54.73128819 36.25685881 56.36743164 36.27099609 C66.53611433 36.36408748 74.80055534 36.4922682 83.3046875 42.67578125 C84.08199219 43.48595703 84.08199219 43.48595703 84.875 44.3125 C85.40867187 44.84488281 85.94234375 45.37726563 86.4921875 45.92578125 C90.84044026 51.90744501 91.45835659 57.33945539 91.43359375 64.51953125 C91.4388356 65.41814377 91.44407745 66.31675629 91.44947815 67.24259949 C91.45587462 69.13608777 91.45459227 71.02961591 91.44604492 72.9230957 C91.43755511 75.79386587 91.46629656 78.66263005 91.49804688 81.53320312 C91.58003515 101.90401635 91.58003515 101.90401635 84.74609375 109.5078125 C83.98425781 110.04148437 83.22242188 110.57515625 82.4375 111.125 C81.67308594 111.68445313 80.90867187 112.24390625 80.12109375 112.8203125 C78 114 78 114 75 114 C75 114.66 75 115.32 75 116 C71.30459598 117.23180134 67.89696622 117.12412112 64.05078125 117.09765625 C63.27816452 117.0962413 62.50554779 117.09482635 61.70951843 117.09336853 C59.24380611 117.08777466 56.77818485 117.07522333 54.3125 117.0625 C52.63997527 117.05748421 50.96744912 117.05292144 49.29492188 117.04882812 C45.19657954 117.03780724 41.09830521 117.02054684 37 117 C37 112.05 37 107.1 37 102 C40.62935547 101.90912109 40.62935547 101.90912109 44.33203125 101.81640625 C46.67524282 101.75459882 49.01840693 101.69121861 51.36157227 101.62768555 C52.99011004 101.58437251 54.61869216 101.54269482 56.24731445 101.50268555 C58.58818935 101.44489497 60.92884176 101.38122602 63.26953125 101.31640625 C64.36186821 101.29133751 64.36186821 101.29133751 65.47627258 101.26576233 C68.56166939 101.17532762 71.05171978 100.98276007 74 100 C74.495 98.515 74.495 98.515 75 97 C75.66 97 76.32 97 77 97 C76.95591481 91.21533882 76.88615355 85.43177621 76.79248047 79.64770508 C76.76423851 77.67969502 76.74304006 75.71157085 76.72900391 73.7434082 C76.70761879 70.9155827 76.6609926 68.08913385 76.609375 65.26171875 C76.60814636 64.38037766 76.60691772 63.49903656 76.60565186 62.59098816 C76.65404345 57.77197306 76.65404345 57.77197306 73.96191406 54.04614258 C73.31448242 53.70091553 72.66705078 53.35568848 72 53 C72 52.34 72 51.68 72 51 C60.12 51 48.24 51 36 51 C36 51.66 36 52.32 36 53 C36.53625 53.20625 37.0725 53.4125 37.625 53.625 C40.87338889 55.5056462 43.91978735 57.83807678 46 61 C45.77600207 64.50696765 44.08933627 66.36951879 41.6875 68.8125 C41.09324219 69.43769531 40.49898437 70.06289062 39.88671875 70.70703125 C38 72 38 72 36.1574707 71.84008789 C33.27675634 70.71837938 31.74525332 69.06642694 29.59375 66.8515625 C28.35431641 65.59085938 28.35431641 65.59085938 27.08984375 64.3046875 C26.23519531 63.42039063 25.38054687 62.53609375 24.5 61.625 C22.80431813 59.8858391 21.1064814 58.14877597 19.40625 56.4140625 C18.65666016 55.6401416 17.90707031 54.8662207 17.13476562 54.06884766 C15.08097116 51.97060779 15.08097116 51.97060779 12.78295898 50.44140625 C11 49 11 49 10.06640625 45.5234375 C10.42126854 38.63122332 17.20501802 34.02747749 21.9375 29.625 C23.50056211 28.1342863 25.05804717 26.63794707 26.61439514 25.14022827 C28.02297089 23.79063513 29.44465695 22.4547651 30.86694336 21.11962891 C33.04021656 19.18558489 33.04021656 19.18558489 34 17 C22.78 17 11.56 17 0 17 C0 11.39 0 5.78 0 0 Z " fill="#5E932E" transform="translate(145,154)"/>
<path d="M0 0 C0.72680969 0.00141495 1.45361938 0.0028299 2.20245361 0.00428772 C4.51521994 0.00986833 6.82788812 0.02241721 9.140625 0.03515625 C10.71223818 0.04017376 12.28385289 0.04473623 13.85546875 0.04882812 C17.70055843 0.0598314 21.5455751 0.07708264 25.390625 0.09765625 C25.390625 4.71765625 25.390625 9.33765625 25.390625 14.09765625 C23.12703125 14.1234375 20.8634375 14.14921875 18.53125 14.17578125 C16.33353357 14.21421916 14.13605039 14.25937332 11.93847656 14.30517578 C10.41385069 14.3333616 8.88907934 14.35458814 7.36425781 14.36865234 C5.16916564 14.39011674 2.97581789 14.43677794 0.78125 14.48828125 C-0.53842773 14.50922852 -1.85810547 14.53017578 -3.21777344 14.55175781 C-6.58529768 14.87746863 -6.58529768 14.87746863 -9.03808594 16.55957031 C-11.41014488 20.39113102 -11.18211032 23.89151164 -11.140625 28.31640625 C-11.1444519 29.21129761 -11.14827881 30.10618896 -11.15222168 31.02819824 C-11.1549402 32.91773607 -11.14758316 34.80731157 -11.13085938 36.69677734 C-11.10944823 39.58776815 -11.13066234 42.47627392 -11.15625 45.3671875 C-11.15360671 47.20443256 -11.14848171 49.04167608 -11.140625 50.87890625 C-11.15277039 52.17435364 -11.15277039 52.17435364 -11.16516113 53.49597168 C-11.10805321 57.15398043 -10.99226609 59.45687457 -9.09277344 62.63574219 C-5.58530157 64.70050247 -2.30461932 64.70068487 1.65625 64.70703125 C2.44964783 64.7235675 3.24304565 64.74010376 4.06048584 64.75714111 C6.58727769 64.80561241 9.11346781 64.82698912 11.640625 64.84765625 C13.35680109 64.87581682 15.07294916 64.90574437 16.7890625 64.9375 C20.98953378 65.01137061 25.1896712 65.06095012 29.390625 65.09765625 C28.2665074 63.80522157 27.14129908 62.5137355 26.015625 61.22265625 C25.38914063 60.50335938 24.76265625 59.7840625 24.1171875 59.04296875 C22.91635666 57.68999645 21.6697905 56.37682175 20.390625 55.09765625 C20.69734146 51.56311417 22.30050475 49.78157245 24.765625 47.34765625 C25.67441406 46.42726563 25.67441406 46.42726563 26.6015625 45.48828125 C28.390625 44.09765625 28.390625 44.09765625 31.390625 44.09765625 C32.92041016 45.56201172 32.92041016 45.56201172 34.5546875 47.58984375 C37.08892335 50.61732908 39.68514213 53.4388825 42.5390625 56.16796875 C43.23386719 56.83699219 43.92867188 57.50601563 44.64453125 58.1953125 C46.07476447 59.562331 47.51246664 60.92157222 48.95703125 62.2734375 C51.85608225 65.08546258 54.06996554 67.41913375 55.8046875 71.08984375 C55.12425335 76.03262011 51.84192314 78.68451157 48.390625 82.09765625 C47.7090332 82.79213867 47.02744141 83.48662109 46.32519531 84.20214844 C44.2397482 86.3110605 42.13222188 88.39503905 40.015625 90.47265625 C38.58886509 91.87398372 37.16426993 93.27751975 35.7421875 94.68359375 C35.12166504 95.29251465 34.50114258 95.90143555 33.86181641 96.52880859 C32.29600538 98.04889086 32.29600538 98.04889086 31.390625 100.09765625 C27.73001679 99.51228872 25.84527336 98.01441725 23.140625 95.53515625 C22.43421875 94.89449219 21.7278125 94.25382812 21 93.59375 C20.46890625 93.10003906 19.9378125 92.60632813 19.390625 92.09765625 C20.78812548 88.93930518 22.44260734 86.774928 24.890625 84.34765625 C25.4990625 83.7340625 26.1075 83.12046875 26.734375 82.48828125 C28.390625 81.09765625 28.390625 81.09765625 30.390625 81.09765625 C30.390625 80.43765625 30.390625 79.77765625 30.390625 79.09765625 C28.57473877 79.12907715 28.57473877 79.12907715 26.72216797 79.16113281 C22.21594139 79.23372165 17.70976616 79.2795246 13.203125 79.31738281 C11.25544534 79.33745531 9.30782563 79.36471957 7.36035156 79.39941406 C4.55518779 79.44812477 1.75082313 79.47066866 -1.0546875 79.48828125 C-1.92054474 79.50892639 -2.78640198 79.52957153 -3.67849731 79.55084229 C-10.26721133 79.55326868 -13.84220582 77.75392743 -18.65625 73.1328125 C-19.21828125 72.48183594 -19.7803125 71.83085937 -20.359375 71.16015625 C-20.93171875 70.51175781 -21.5040625 69.86335938 -22.09375 69.1953125 C-25.9944771 63.79662577 -25.91658179 58.69212073 -25.91015625 52.265625 C-25.91444138 51.31504715 -25.9187265 50.3644693 -25.92314148 49.38508606 C-25.9288744 47.37709345 -25.9293927 45.36908008 -25.92504883 43.36108398 C-25.92189662 40.30611241 -25.94533429 37.25211705 -25.97070312 34.19726562 C-25.97297716 32.24088663 -25.97367913 30.28450505 -25.97265625 28.328125 C-25.981866 27.42265427 -25.99107574 26.51718353 -26.00056458 25.58427429 C-25.9500833 18.58059953 -24.94355342 12.87343599 -20.296875 7.34765625 C-13.33246191 1.51698482 -8.92046468 -0.06566136 0 0 Z " fill="#5D922E" transform="translate(116.609375,190.90234375)"/>
<path d="M0 0 C3.3 0 6.6 0 10 0 C10 16.83 10 33.66 10 51 C12.475 50.505 12.475 50.505 15 50 C15.66 50.33 16.32 50.66 17 51 C17 51.66 17 52.32 17 53 C18.299375 52.071875 18.299375 52.071875 19.625 51.125 C22.7734796 49.14262395 25.50524804 48.16491732 29 47 C32.55874844 44.45803683 32.45079953 42.64760142 34 38 C44.56 38 55.12 38 66 38 C66 45.92 66 53.84 66 62 C64.02 62 62.04 62 60 62 C60 61.67 60 61.34 60 61 C61.65 61 63.3 61 65 61 C65 53.74 65 46.48 65 39 C55.1 39 45.2 39 35 39 C35 46.26 35 53.52 35 61 C38.3 61 41.6 61 45 61 C45 66.28 45 71.56 45 77 C28.83 77 12.66 77 -4 77 C-4 71.72 -4 66.44 -4 61 C-0.04 61 3.92 61 8 61 C8 41.2 8 21.4 8 1 C5.36 1 2.72 1 0 1 C0 0.67 0 0.34 0 0 Z " fill="#1B7648" transform="translate(150,93)"/>
<path d="M0 0 C16.5 0 33 0 50 0 C50 0.33 50 0.66 50 1 C48.66038208 1.07516846 48.66038208 1.07516846 47.29370117 1.15185547 C43.97776887 1.34222534 40.66252613 1.54068021 37.34741211 1.74462891 C35.91303398 1.83120717 34.47845773 1.91456619 33.04370117 1.99462891 C30.98034995 2.11033084 28.91799032 2.23762554 26.85546875 2.3671875 C24.99378052 2.47716064 24.99378052 2.47716064 23.09448242 2.58935547 C19.83718647 2.79045811 19.83718647 2.79045811 17 5 C14.3125 5.125 14.3125 5.125 12 5 C11.7525 5.61875 11.505 6.2375 11.25 6.875 C9.430817 9.96761109 7.09295303 10.54996052 3.875 11.875 C1.52384257 13.05752237 1.52384257 13.05752237 0 17 C0 11.39 0 5.78 0 0 Z " fill="#34875E" transform="translate(145,77)"/>
<path d="M0 0 C0.33 0 0.66 0 1 0 C1 7.26 1 14.52 1 22 C-4.61 22 -10.22 22 -16 22 C-16 19.69 -16 17.38 -16 15 C-14.96875 14.566875 -13.9375 14.13375 -12.875 13.6875 C-10.44935239 12.65144404 -8.11342061 11.5567103 -5.75 10.375 C-3 9 -3 9 0 8 C0 5.36 0 2.72 0 0 Z " fill="#669839" transform="translate(133,86)"/>
<path d="M0 0 C0.99 0 1.98 0 3 0 C3 2.97 3 5.94 3 9 C-5.91 9 -14.82 9 -24 9 C-22.38021686 5.76043371 -19.08384002 4.66098719 -16 3 C-15.35289062 2.60941406 -14.70578125 2.21882812 -14.0390625 1.81640625 C-8.84680828 -1.14913025 -5.83860171 -1.18751221 0 0 Z " fill="#066C37" transform="translate(191,160)"/>
<path d="M0 0 C0.33 0 0.66 0 1 0 C1 5.28 1 10.56 1 16 C17.17 16 33.34 16 50 16 C50 16.33 50 16.66 50 17 C46.37 17 42.74 17 39 17 C39.495 18.485 39.495 18.485 40 20 C39.28432861 20.06735352 38.56865723 20.13470703 37.83129883 20.20410156 C34.11766447 21.24803085 32.43631087 23.03052692 29.69921875 25.734375 C29.2179805 26.20941467 28.73674225 26.68445435 28.24092102 27.17388916 C27.23007896 28.17764961 26.22431254 29.18654442 25.22338867 30.20019531 C23.69043916 31.74703421 22.13498435 33.26834177 20.57617188 34.7890625 C19.59490171 35.76938162 18.61503412 36.75110711 17.63671875 37.734375 C16.30193481 39.06807129 16.30193481 39.06807129 14.94018555 40.42871094 C12.74371766 43.33964585 12.56465344 44.45707852 13 48 C13 48.99 13 49.98 13 51 C11 49 11 49 10.19140625 45.5859375 C10.34069971 39.73839024 14.80224548 36.36955568 18.77148438 32.57421875 C19.82615383 31.59042806 20.88150043 30.60736282 21.9375 29.625 C23.50056211 28.1342863 25.05804717 26.63794707 26.61439514 25.14022827 C28.02297089 23.79063513 29.44465695 22.4547651 30.86694336 21.11962891 C33.04021656 19.18558489 33.04021656 19.18558489 34 17 C22.78 17 11.56 17 0 17 C0 11.39 0 5.78 0 0 Z " fill="#75A664" transform="translate(145,154)"/>
<path d="M0 0 C-0.99 0.99 -1.98 1.98 -3 3 C-0.525 3.495 -0.525 3.495 2 4 C2 4.33 2 4.66 2 5 C1.41734375 5.03738281 0.8346875 5.07476563 0.234375 5.11328125 C-5.77932889 5.59551222 -11.33596532 6.7394821 -17.140625 8.37890625 C-20.17401494 9.03779833 -22.90544342 9.10528817 -26 9 C-25.67 7.35 -25.34 5.7 -25 4 C-6.35136392 -2.06788593 -6.35136392 -2.06788593 0 0 Z " fill="#6D9D43" transform="translate(139,5)"/>
<path d="M0 0 C11.55 0 23.1 0 35 0 C35 0.66 35 1.32 35 2 C31.90521121 3.03159626 30.47368607 2.97482862 27.3125 2.5625 C26.50425781 2.46066406 25.69601563 2.35882813 24.86328125 2.25390625 C24.24839844 2.17011719 23.63351563 2.08632813 23 2 C22.88269531 2.63550781 22.76539063 3.27101563 22.64453125 3.92578125 C22.43183594 4.61027344 22.21914062 5.29476563 22 6 C19.11280405 7.48261414 16.16023369 8.29772585 13 9 C10 4.25 10 4.25 10 2 C6.7 1.67 3.4 1.34 0 1 C0 0.67 0 0.34 0 0 Z " fill="#D7E4CA" transform="translate(112,270)"/>
<path d="M0 0 C0.763125 0.20625 1.52625 0.4125 2.3125 0.625 C2.3125 3.925 2.3125 7.225 2.3125 10.625 C0.3325 11.615 0.3325 11.615 -1.6875 12.625 C-4.25 11.0625 -4.25 11.0625 -6.6875 8.625 C-6.6875 5 -6.6875 5 -5.6875 1.625 C-2.6875 -0.375 -2.6875 -0.375 0 0 Z " fill="#E8EFE1" transform="translate(310.6875,248.375)"/>
<path d="M0 0 C0.33 0.66 0.66 1.32 1 2 C0.195625 2.763125 -0.60875 3.52625 -1.4375 4.3125 C-4.16799024 6.79430898 -4.16799024 6.79430898 -5 10 C-6.00160156 10.38800781 -7.00320312 10.77601562 -8.03515625 11.17578125 C-13.256161 13.22121961 -16.6312078 17.20012162 -20.4375 21.1875 C-21.16904297 21.93708984 -21.90058594 22.68667969 -22.65429688 23.45898438 C-24.44567435 25.29719525 -26.22699092 27.14409533 -28 29 C-28 24.87322664 -25.8002029 23.16826067 -23.125 20.3125 C-22.66480469 19.80138672 -22.20460938 19.29027344 -21.73046875 18.76367188 C-20.53364992 17.46451637 -19.27071716 16.22697116 -18 15 C-17.34 15 -16.68 15 -16 15 C-15.78214844 14.43539062 -15.56429687 13.87078125 -15.33984375 13.2890625 C-13.56266536 10.25283353 -11.31128365 8.55796497 -8.5625 6.375 C-7.59441406 5.59898438 -6.62632813 4.82296875 -5.62890625 4.0234375 C-3.80125361 2.61671526 -1.91898681 1.27932454 0 0 Z " fill="#D2E2C4" transform="translate(68,37)"/>
<path d="M0 0 C0.63526611 0.0714624 1.27053223 0.1429248 1.92504883 0.21655273 C9.53117117 0.9984012 17.0461508 1.11827627 24.6875 1.0625 C25.87794922 1.05798828 27.06839844 1.05347656 28.29492188 1.04882812 C31.19666936 1.03717452 34.09830626 1.02081559 37 1 C28.30000099 5.56979018 15.33764782 5.34080618 5.82421875 3.328125 C3.375 2.5 3.375 2.5 0 1 C0 0.67 0 0.34 0 0 Z " fill="#90B66F" transform="translate(83,168)"/>
<path d="M0 0 C4.29 0 8.58 0 13 0 C13 1.65 13 3.3 13 5 C10.24921116 5.91692961 8.64051087 6.10886083 5.8125 6.0625 C3.9253125 6.0315625 3.9253125 6.0315625 2 6 C1.34 4.02 0.68 2.04 0 0 Z " fill="#E3ECDB" transform="translate(122,0)"/>
<path d="M0 0 C0.66 0 1.32 0 2 0 C2.84707918 3.91774122 3.14497687 7.75387002 3.25 11.75 C3.27578125 12.69359375 3.3015625 13.6371875 3.328125 14.609375 C3.21984375 15.39828125 3.1115625 16.1871875 3 17 C2.01 17.66 1.02 18.32 0 19 C-1.8855253 17.1144747 -1.13246689 14.42231169 -1.13671875 11.91796875 C-1.13285156 11.12003906 -1.12898437 10.32210937 -1.125 9.5 C-1.12886719 8.70207031 -1.13273438 7.90414062 -1.13671875 7.08203125 C-1.12660767 1.12660767 -1.12660767 1.12660767 0 0 Z " fill="#5B8F2D" transform="translate(4,157)"/>
<path d="M0 0 C0.33 0 0.66 0 1 0 C1.33 4.62 1.66 9.24 2 14 C2.66 12.02 3.32 10.04 4 8 C4.33 8 4.66 8 5 8 C5 12.95 5 17.9 5 23 C4.67 23 4.34 23 4 23 C4 21.02 4 19.04 4 17 C3.34 17.33 2.68 17.66 2 18 C1.67 23.61 1.34 29.22 1 35 C0.67 35 0.34 35 0 35 C0 23.45 0 11.9 0 0 Z " fill="#7CA756" transform="translate(2,140)"/>
<path d="M0 0 C0.66 0.33 1.32 0.66 2 1 C1.35256836 1.47598633 0.70513672 1.95197266 0.03808594 2.44238281 C-2.91420423 6.14724526 -2.60256507 9.30798187 -2.609375 13.921875 C-2.62591125 14.78186096 -2.64244751 15.64184692 -2.65948486 16.52789307 C-2.70798368 19.26866788 -2.72933956 22.0088878 -2.75 24.75 C-2.77815817 26.61070503 -2.80808539 28.47138419 -2.83984375 30.33203125 C-2.91374297 34.88797515 -2.96330595 39.44361067 -3 44 C-3.33 44 -3.66 44 -4 44 C-4.09880115 38.21595259 -4.1714363 32.43239516 -4.21972656 26.64770508 C-4.23985481 24.6795191 -4.26716019 22.71139301 -4.30175781 20.7434082 C-4.35022311 17.9160282 -4.37295618 15.08943799 -4.390625 12.26171875 C-4.41127014 11.38037766 -4.43191528 10.49903656 -4.45318604 9.59098816 C-4.45544041 3.46768875 -4.45544041 3.46768875 -1.97558594 0.92114258 C-1.32364258 0.61716553 -0.67169922 0.31318848 0 0 Z " fill="#DFECD4" transform="translate(109,207)"/>
<path d="M0 0 C2.64 0 5.28 0 8 0 C7.9375 2.3125 7.9375 2.3125 7 5 C3.4375 6.8125 3.4375 6.8125 0 8 C0 5.36 0 2.72 0 0 Z " fill="#036638" transform="translate(146,78)"/>
<path d="M0 0 C0.33 0.66 0.66 1.32 1 2 C0.67 2.66 0.34 3.32 0 4 C0.66 4 1.32 4 2 4 C1.67 4.99 1.34 5.98 1 7 C0.01 6.67 -0.98 6.34 -2 6 C-3.56249809 7.31201173 -3.56249809 7.31201173 -5 9 C-5 9.99 -5 10.98 -5 12 C-7.26216255 13.54779543 -9.55224566 14.77612283 -12 16 C-11.33333333 14.66666667 -10.66666667 13.33333333 -10 12 C-9.731875 11.360625 -9.46375 10.72125 -9.1875 10.0625 C-7.55463032 7.22646319 -5.36283971 5.24757924 -3 3 C-2.401875 2.401875 -1.80375 1.80375 -1.1875 1.1875 C-0.795625 0.795625 -0.40375 0.40375 0 0 Z " fill="#6B9A42" transform="translate(44,51)"/>
<path d="M0 0 C1.36125 0.37125 1.36125 0.37125 2.75 0.75 C-0.41952847 4.01008643 -3.64937989 6.97237877 -7.25 9.75 C-7.57357362 6.19069018 -7.6380551 4.33208265 -5.625 1.3125 C-3.25 -0.25 -3.25 -0.25 0 0 Z " fill="#E0E9D7" transform="translate(49.25,43.25)"/>
<path d="M0 0 C0 6.6 0 13.2 0 20 C-3.3 20 -6.6 20 -10 20 C-10 19.67 -10 19.34 -10 19 C-7.03 19 -4.06 19 -1 19 C-1 13.72 -1 8.44 -1 3 C-2.65 3.66 -4.3 4.32 -6 5 C-3.74193548 0 -3.74193548 0 0 0 Z " fill="#E1EDDC" transform="translate(215,134)"/>
<path d="M0 0 C0.33 0.66 0.66 1.32 1 2 C0.195625 2.763125 -0.60875 3.52625 -1.4375 4.3125 C-4.16799024 6.79430898 -4.16799024 6.79430898 -5 10 C-6.65 10.33 -8.3 10.66 -10 11 C-10 10.01 -10 9.02 -10 8 C-7.8125 5.95703125 -7.8125 5.95703125 -5 3.8125 C-4.071875 3.09707031 -3.14375 2.38164063 -2.1875 1.64453125 C-1.1046875 0.83048828 -1.1046875 0.83048828 0 0 Z " fill="#DEE9D3" transform="translate(68,37)"/>
<path d="M0 0 C0 0.99 0 1.98 0 3 C-1.43294498 3.84114171 -2.87154405 4.67265687 -4.3125 5.5 C-5.51326172 6.19609375 -5.51326172 6.19609375 -6.73828125 6.90625 C-9 8 -9 8 -12 8 C-12 7.34 -12 6.68 -12 6 C-9.8828125 4.4921875 -9.8828125 4.4921875 -7.125 2.875 C-6.22007813 2.33617187 -5.31515625 1.79734375 -4.3828125 1.2421875 C-2 0 -2 0 0 0 Z " fill="#E8EFE1" transform="translate(69,126)"/>
<path d="M0 0 C0.66 0.33 1.32 0.66 2 1 C2 1.99 2 2.98 2 4 C1.34 4 0.68 4 0 4 C0.33 6.64 0.66 9.28 1 12 C0.01 12 -0.98 12 -2 12 C-2 8.37 -2 4.74 -2 1 C-1.34 0.67 -0.68 0.34 0 0 Z " fill="#568A27" transform="translate(309,156)"/>
<path d="M0 0 C-1.49247873 2.98495746 -3.92535255 4.94245977 -6.30859375 7.24609375 C-8.19187721 9.09465912 -8.19187721 9.09465912 -10 12 C-10.734375 10.265625 -10.734375 10.265625 -11 8 C-9.453125 5.859375 -9.453125 5.859375 -7.25 3.75 C-6.17492187 2.69039062 -6.17492187 2.69039062 -5.078125 1.609375 C-3 0 -3 0 0 0 Z " fill="#75A34C" transform="translate(148,235)"/>
<path d="M0 0 C0.33 0 0.66 0 1 0 C1 1.98 1 3.96 1 6 C1.99 6 2.98 6 4 6 C4.25 8.3125 4.25 8.3125 4 11 C2.68 11.99 1.36 12.98 0 14 C0 9.38 0 4.76 0 0 Z " fill="#619433" transform="translate(306,162)"/>
<path d="M0 0 C-0.33 0.99 -0.66 1.98 -1 3 C3.29 3.33 7.58 3.66 12 4 C12 4.33 12 4.66 12 5 C6.06 5 0.12 5 -6 5 C-6 4.01 -6 3.02 -6 2 C-2.25 0 -2.25 0 0 0 Z " fill="#E3EDD9" transform="translate(64,134)"/>
<path d="M0 0 C0.33 0.99 0.66 1.98 1 3 C-0.43294498 3.84114171 -1.87154405 4.67265687 -3.3125 5.5 C-4.51326172 6.19609375 -4.51326172 6.19609375 -5.73828125 6.90625 C-8 8 -8 8 -11 8 C-10 5 -10 5 -7.71484375 3.61328125 C-6.79832031 3.18402344 -5.88179687 2.75476562 -4.9375 2.3125 C-4.01839844 1.87550781 -3.09929687 1.43851563 -2.15234375 0.98828125 C-1.08693359 0.49908203 -1.08693359 0.49908203 0 0 Z " fill="#E7EEE0" transform="translate(219,36)"/>
<path d="M0 0 C-1.39750048 3.15835107 -3.05198234 5.32272825 -5.5 7.75 C-6.41265625 8.67039062 -6.41265625 8.67039062 -7.34375 9.609375 C-9 11 -9 11 -11 11 C-9.60249952 7.84164893 -7.94801766 5.67727175 -5.5 3.25 C-4.8915625 2.63640625 -4.283125 2.0228125 -3.65625 1.390625 C-2 0 -2 0 0 0 Z " fill="#72A149" transform="translate(147,272)"/>
<path d="M0 0 C4 4.75 4 4.75 4 7 C2.35 7.66 0.7 8.32 -1 9 C-1.99 7.02 -2.98 5.04 -4 3 C-2.68 3.33 -1.36 3.66 0 4 C0 2.68 0 1.36 0 0 Z " fill="#709F46" transform="translate(285,72)"/>
<path d="M0 0 C0.66 0.33 1.32 0.66 2 1 C1.67 1.66 1.34 2.32 1 3 C2.65 3.33 4.3 3.66 6 4 C2.5647952 6.29013653 1.014669 6.17842973 -3 6 C-2.625 3.5625 -2.625 3.5625 -2 1 C-1.34 0.67 -0.68 0.34 0 0 Z " fill="#6F9E45" transform="translate(116,8)"/>
<path d="M0 0 C-0.25 1.875 -0.25 1.875 -1 4 C-3.95545121 6.11103658 -6.43855901 6.19785783 -10 6 C-8.68 5.34 -7.36 4.68 -6 4 C-6 3.34 -6 2.68 -6 2 C-2.25 0 -2.25 0 0 0 Z " fill="#E8EFE1" transform="translate(69,308)"/>
<path d="M0 0 C0.57234375 0.22558594 1.1446875 0.45117188 1.734375 0.68359375 C0.1154754 1.71407412 -1.51094989 2.73274053 -3.140625 3.74609375 C-4.04554687 4.31457031 -4.95046875 4.88304687 -5.8828125 5.46875 C-6.66914062 5.86964844 -7.45546875 6.27054688 -8.265625 6.68359375 C-8.925625 6.35359375 -9.585625 6.02359375 -10.265625 5.68359375 C-9.02827516 4.64746342 -7.77517863 3.63011573 -6.515625 2.62109375 C-5.81953125 2.05261719 -5.1234375 1.48414063 -4.40625 0.8984375 C-2.265625 -0.31640625 -2.265625 -0.31640625 0 0 Z " fill="#E7EEE0" transform="translate(68.265625,219.31640625)"/>
<path d="M0 0 C-1.32 1.65 -2.64 3.3 -4 5 C-5.32 4.67 -6.64 4.34 -8 4 C-7.67 3.01 -7.34 2.02 -7 1 C-4.53721199 -0.231394 -2.7204945 -0.07159196 0 0 Z " fill="#5B8E2D" transform="translate(125,7)"/>
<path d="M0 0 C0.33 0.99 0.66 1.98 1 3 C-4.75 7 -4.75 7 -7 7 C-7 6.01 -7 5.02 -7 4 C-4.69 2.68 -2.38 1.36 0 0 Z " fill="#E8EFE1" transform="translate(212,307)"/>
<path d="M0 0 C1.32 0 2.64 0 4 0 C5.125 3.75 5.125 3.75 4 6 C3.01 5.67 2.02 5.34 1 5 C0.67 3.35 0.34 1.7 0 0 Z " fill="#5A8D2C" transform="translate(285,79)"/>
<path d="M0 0 C0.66 0.33 1.32 0.66 2 1 C1.6875 2.875 1.6875 2.875 1 5 C0.01 5.66 -0.98 6.32 -2 7 C-2 6.34 -2 5.68 -2 5 C-2.66 4.67 -3.32 4.34 -4 4 C-2.68 2.68 -1.36 1.36 0 0 Z " fill="#5B8D2D" transform="translate(42,56)"/>
<path d="M0 0 C-5.625 4 -5.625 4 -9 4 C-9 3.34 -9 2.68 -9 2 C-3.375 -1.125 -3.375 -1.125 0 0 Z " fill="#E7EEE0" transform="translate(214,219)"/>
<path d="M0 0 C0.556875 0.226875 1.11375 0.45375 1.6875 0.6875 C-3.9375 4.6875 -3.9375 4.6875 -7.3125 4.6875 C-7.3125 4.0275 -7.3125 3.3675 -7.3125 2.6875 C-3.15982824 -0.42700382 -3.15982824 -0.42700382 0 0 Z " fill="#E7EEE0" transform="translate(61.3125,218.3125)"/>
<path d="M0 0 C0.33 0.99 0.66 1.98 1 3 C-3.625 6 -3.625 6 -7 6 C-7 5.34 -7 4.68 -7 4 C-4.69 2.68 -2.38 1.36 0 0 Z " fill="#E8EFE1" transform="translate(212,35)"/>
<path d="M0 0 C-1.28519565 2.86697492 -2.57129254 4.97607712 -5 7 C-5.66 7 -6.32 7 -7 7 C-3.86206897 0 -3.86206897 0 0 0 Z " fill="#77A44E" transform="translate(71,83)"/>
<path d="M0 0 C0.33 0.66 0.66 1.32 1 2 C1.99 2.33 2.98 2.66 4 3 C-1.75 6.875 -1.75 6.875 -4 8 C-2.66666667 5.33333333 -1.33333333 2.66666667 0 0 Z " fill="#73A14A" transform="translate(36,59)"/>
<path d="M0 0 C2.79872437 2.52788007 4.45773019 4.20411134 5 8 C3.0625 7.375 3.0625 7.375 1 6 C0.25 2.875 0.25 2.875 0 0 Z " fill="#D6E3CA" transform="translate(282,78)"/>
</svg>
